<svg width="32" height="32" viewBox="0 0 32 32" fill="none" xmlns="http://www.w3.org/2000/svg">
<path d="M15.75 0.75C7.4655 0.75 0.75 7.4655 0.75 15.75C0.75 24.0345 7.4655 30.75 15.75 30.75C24.0345 30.75 30.75 24.0345 30.75 15.75C30.75 7.4655 24.0345 0.75 15.75 0.75Z" stroke="#696969" stroke-width="1.5" stroke-linecap="round" stroke-linejoin="round"/>
<path d="M4.15698 25.269C4.15698 25.269 7.50048 21 15.7505 21C24.0005 21 27.3455 25.269 27.3455 25.269M15.7505 15.75C16.944 15.75 18.0886 15.2759 18.9325 14.432C19.7764 13.5881 20.2505 12.4435 20.2505 11.25C20.2505 10.0565 19.7764 8.91193 18.9325 8.06802C18.0886 7.22411 16.944 6.75 15.7505 6.75C14.557 6.75 13.4124 7.22411 12.5685 8.06802C11.7246 8.91193 11.2505 10.0565 11.2505 11.25C11.2505 12.4435 11.7246 13.5881 12.5685 14.432C13.4124 15.2759 14.557 15.75 15.7505 15.75Z" stroke="#696969" stroke-width="1.5" stroke-linecap="round" stroke-linejoin="round"/>
</svg>
