<svg width="64" height="64" viewBox="0 0 64 64" fill="none" xmlns="http://www.w3.org/2000/svg">
<path d="M32 0C49.6731 0 64 14.3269 64 32C64 49.6731 49.6731 64 32 64C14.3269 64 0 49.6731 0 32C0 14.3269 14.3269 0 32 0Z" fill="#00744E"/>
<path d="M32 0C49.6731 0 64 14.3269 64 32C64 49.6731 49.6731 64 32 64C14.3269 64 0 49.6731 0 32C0 14.3269 14.3269 0 32 0Z" stroke="#E5E7EB"/>
<g clip-path="url(#clip0_62_53)">
<path d="M42.5 30.625V30.7796L45.7672 27.5125C46.7938 26.4859 46.7938 24.8265 45.7672 23.8L42.1062 20.1437C41.0797 19.1171 39.4203 19.1171 38.3937 20.1437L36.5141 22.0234C36.3875 22.0093 36.2563 22 36.125 22H30.875C29.1359 22 27.7062 23.3125 27.5187 25H27.5V30.625C27.5 31.6609 28.3391 32.5 29.375 32.5C30.4109 32.5 31.25 31.6609 31.25 30.625V27.25V27.2453V26.5H32H38.375C38.375 26.5 38.375 26.5 38.3797 26.5H38.75C40.8219 26.5 42.5 28.1781 42.5 30.25V30.625ZM32.75 28V30.625C32.75 32.4906 31.2406 34 29.375 34C27.5094 34 26 32.4906 26 30.625V25.0656C24.3172 25.3562 22.9156 26.5796 22.4375 28.2625L21.6641 30.9625L18.2328 34.3937C17.2062 35.4203 17.2062 37.0796 18.2328 38.1062L21.8938 41.7671C22.9203 42.7937 24.5797 42.7937 25.6063 41.7671L27.3734 40C27.4156 40 27.4578 40.0046 27.5 40.0046H35C36.2422 40.0046 37.25 38.9968 37.25 37.7546C37.25 37.4921 37.2031 37.239 37.1234 37.0046H37.25C38.4922 37.0046 39.5 35.9968 39.5 34.7546C39.5 34.1546 39.2656 33.6109 38.8812 33.2078C40.0859 32.9734 40.9953 31.914 41 30.639V30.6203C40.9953 29.1765 39.8234 28.0046 38.375 28.0046H32.75V28Z" fill="white"/>
</g>
<defs>
<clipPath id="clip0_62_53">
<path d="M17 19H47V43H17V19Z" fill="white"/>
</clipPath>
</defs>
</svg>
