<svg width="14" height="20" viewBox="0 0 14 20" fill="none" xmlns="http://www.w3.org/2000/svg">
<path d="M14 20H0V0H14V20Z" stroke="#E5E7EB"/>
<g clip-path="url(#clip0_114_17)">
<path d="M11.375 8.4375C11.375 9.69258 10.9676 10.852 10.2812 11.7926L13.743 15.257C14.0848 15.5988 14.0848 16.1539 13.743 16.4957C13.4012 16.8375 12.8461 16.8375 12.5043 16.4957L9.04258 13.0312C8.10195 13.7203 6.94258 14.125 5.6875 14.125C2.5457 14.125 0 11.5793 0 8.4375C0 5.2957 2.5457 2.75 5.6875 2.75C8.8293 2.75 11.375 5.2957 11.375 8.4375ZM5.6875 12.375C6.20458 12.375 6.7166 12.2732 7.19432 12.0753C7.67204 11.8774 8.1061 11.5874 8.47173 11.2217C8.83736 10.8561 9.1274 10.422 9.32528 9.94432C9.52315 9.4666 9.625 8.95458 9.625 8.4375C9.625 7.92042 9.52315 7.4084 9.32528 6.93068C9.1274 6.45296 8.83736 6.0189 8.47173 5.65327C8.1061 5.28764 7.67204 4.9976 7.19432 4.79972C6.7166 4.60185 6.20458 4.5 5.6875 4.5C5.17042 4.5 4.6584 4.60185 4.18068 4.79972C3.70296 4.9976 3.2689 5.28764 2.90327 5.65327C2.53764 6.0189 2.2476 6.45296 2.04972 6.93068C1.85185 7.4084 1.75 7.92042 1.75 8.4375C1.75 8.95458 1.85185 9.4666 2.04972 9.94432C2.2476 10.422 2.53764 10.8561 2.90327 11.2217C3.2689 11.5874 3.70296 11.8774 4.18068 12.0753C4.6584 12.2732 5.17042 12.375 5.6875 12.375Z" fill="#9CA3AF"/>
</g>
<defs>
<clipPath id="clip0_114_17">
<path d="M0 2.75H14V16.75H0V2.75Z" fill="white"/>
</clipPath>
</defs>
</svg>
